# This file uses centimeters as units for non-parametric coordinates.

mtllib stone.mtl
g default
v -1.122412 1.238709 0.062274
v 0.722392 1.230286 -0.066257
v 0.876126 1.210456 -0.859529
v -1.228023 1.257020 0.799067
v 0.469344 1.250569 0.733954
v 1.825059 1.228326 -0.017254
v 1.748503 1.212053 -0.692008
v 1.570879 1.243570 0.576669
v -1.125943 0.005483 0.092417
v 0.718861 -0.002941 -0.036115
v 0.872595 -0.022770 -0.829387
v -1.142169 -0.017828 -0.863211
v 0.579614 -0.039626 -1.553322
v -0.562788 -0.034971 -1.496693
v -1.569944 -0.013875 -0.751599
v -2.090117 0.009119 0.128222
v -1.231554 0.023793 0.829210
v 0.465813 0.017342 0.764097
v -2.168897 0.020799 0.596893
v -0.847881 0.039898 1.533044
v -0.006596 0.038393 1.570030
v -1.784007 0.036558 1.286717
v 1.821528 -0.004901 0.012889
v 1.744972 -0.021174 -0.661865
v 1.493265 -0.033439 -1.193158
v 1.567348 0.010344 0.606811
v 1.315874 0.029897 1.377363
v 2.614190 -0.003309 0.170845
v 2.741767 -0.015701 -0.321204
v 2.365015 -0.030597 -0.974777
v 2.429154 0.005651 0.515791
v 2.319037 0.016703 0.955032
v -1.051316 1.218686 -0.748621
v -1.126600 0.989279 -0.919244
v -0.484602 1.201918 -1.368253
v -0.594159 0.973701 -1.498216
v 0.556235 1.197677 -1.419848
v 0.582542 0.982913 -1.578315
v -1.460825 1.222470 -0.641774
v -1.615313 0.947323 -0.696216
v -1.931687 1.243284 0.154640
v -2.117982 0.927953 0.102906
v -1.996043 1.252826 0.537502
v -2.176940 0.950734 0.663589
v -0.819887 1.269115 1.341737
v -0.809095 0.938860 1.584390
v -0.011278 1.267669 1.377286
v 0.024278 0.930080 1.622342
v -1.672494 1.266073 1.117387
v -1.745754 0.953852 1.374898
v 1.447154 1.203710 -1.068644
v 1.496193 0.989100 -1.218151
v 1.275539 1.259402 1.189814
v 1.369755 1.025923 1.394182
v 2.465652 1.228899 0.081216
v 2.598226 1.127471 0.141539
v 2.571716 1.218596 -0.327859
v 2.740746 1.115838 -0.349231
v 2.262420 1.206367 -0.864413
v 2.312010 1.010412 -1.005083
v 2.280303 1.237875 0.426746
v 2.494156 1.169160 0.492707
v 2.184990 1.247440 0.806935
v 2.365546 1.028586 0.993988
v 2.795536 0.546023 0.163330
v 2.643473 0.557467 0.601518
v 2.414668 0.569111 1.030292
v 1.328053 0.582553 1.473774
v 0.144725 0.591182 1.688181
v -0.783718 0.593127 1.658983
v -1.799117 0.588968 1.369891
v -2.225613 0.573492 0.686764
v -2.180551 0.558867 0.093662
v -1.740742 0.538368 -0.693495
v -1.227395 0.528867 -1.022075
v -0.631509 0.513374 -1.586141
v 0.543648 0.507212 -1.700589
v 1.534352 0.512133 -1.383203
v 2.403137 0.517291 -1.070397
v 2.826802 0.532288 -0.407189
vt 0.519765 0.428833
vt 0.611428 0.677506
vt 0.511991 0.733084
vt 0.414930 0.512417
vt 0.623073 0.355714
vt 0.447325 0.288604
vt 0.545534 0.253401
vt 0.378402 0.357064
vt 0.729847 0.630384
vt 0.774933 0.512572
vt 0.816069 0.518847
vt 0.780190 0.638455
vt 0.765067 0.723060
vt 0.728821 0.691787
vt 0.721329 0.364049
vt 0.756568 0.341587
vt 0.618370 0.261180
vt 0.648144 0.228923
vt 0.667148 0.835629
vt 0.638515 0.790394
vt 0.588252 0.869353
vt 0.591238 0.816707
vt 0.465360 0.853966
vt 0.500483 0.808301
vt 0.409184 0.721430
vt 0.354889 0.756757
vt 0.285277 0.642669
vt 0.348994 0.619480
vt 0.249712 0.426271
vt 0.301258 0.429280
vt 0.528801 0.178232
vt 0.546501 0.147963
vt 0.275830 0.264730
vt 0.317903 0.286418
vt 0.829210 0.607343
vt 0.718750 0.609216
vt 0.722649 0.376399
vt 0.814343 0.394166
vt 0.833354 0.718758
vt 0.731654 0.658647
vt 0.645523 0.542264
vt 0.638971 0.410253
vt 0.742007 0.275592
vt 0.820001 0.266748
vt 0.906840 0.423409
vt 0.914376 0.619549
vt 0.887528 0.727863
vt 0.680597 0.304677
vt 0.781379 0.160408
vt 0.838255 0.175152
vt 0.888654 0.296121
vt 1.000000 0.478000
vt 0.995730 0.575215
vt 0.967262 0.683389
vt 0.705835 0.203942
vt 0.878128 0.196534
vt 0.977722 0.325182
vt 0.928900 0.209260
vt 0.393711 0.209970
vt 0.361005 0.253150
vt 0.338122 0.226791
vt 0.374559 0.190703
vt 0.432589 0.151923
vt 0.440982 0.177562
vt 0.826780 0.311967
vt 0.897948 0.260600
vt 0.971694 0.505518
vt 0.882584 0.516173
vt 0.940651 0.698936
vt 0.857693 0.666949
vt 0.895860 0.791854
vt 0.809257 0.769673
vt 0.732899 0.957060
vt 0.692258 0.883202
vt 0.623344 0.997709
vt 0.594175 0.920115
vt 0.308311 0.790105
vt 0.255691 0.864343
vt 0.153028 0.705689
vt 0.226782 0.645562
vt 0.435486 0.986094
vt 0.453736 0.905556
vt 0.704231 0.166865
vt 0.756667 0.091395
vt 0.093409 0.431521
vt 0.181358 0.435921
vt 0.421042 0.071673
vt 0.327923 0.111770
vt 0.275765 0.045306
vt 0.391699 -0.003869
vt 0.573325 -0.002346
vt 0.560134 0.079814
vt 0.264220 0.162811
vt 0.202318 0.105600
vt 0.137709 0.197097
vt 0.217501 0.234444
vn -0.002862 -0.999697 0.024435
vn -0.002862 -0.999697 0.024435
vn -0.002862 -0.999697 0.024435
vn -0.002862 -0.999697 0.024435
vn -0.002863 -0.999697 0.024434
vn -0.002863 -0.999697 0.024434
vn -0.002863 -0.999697 0.024434
vn -0.002863 -0.999697 0.024434
vn -0.002863 -0.999697 0.024435
vn -0.002863 -0.999697 0.024435
vn -0.002863 -0.999697 0.024435
vn -0.002863 -0.999697 0.024435
vn -0.002862 -0.999697 0.024434
vn -0.002862 -0.999697 0.024434
vn -0.002862 -0.999697 0.024434
vn -0.002862 -0.999697 0.024434
vn -0.002863 -0.999697 0.024434
vn -0.002863 -0.999697 0.024434
vn -0.002863 -0.999697 0.024434
vn -0.002863 -0.999697 0.024434
vn -0.002862 -0.999697 0.024434
vn -0.002862 -0.999697 0.024434
vn -0.002862 -0.999697 0.024434
vn -0.002862 -0.999697 0.024434
vn -0.002863 -0.999697 0.024435
vn -0.002863 -0.999697 0.024435
vn -0.002863 -0.999697 0.024435
vn -0.002863 -0.999697 0.024435
vn -0.002863 -0.999697 0.024434
vn -0.002863 -0.999697 0.024434
vn -0.002863 -0.999697 0.024434
vn -0.002863 -0.999697 0.024434
vn -0.002862 -0.999697 0.024434
vn -0.002862 -0.999697 0.024434
vn -0.002862 -0.999697 0.024434
vn -0.002862 -0.999697 0.024434
vn -0.002863 -0.999697 0.024434
vn -0.002863 -0.999697 0.024434
vn -0.002863 -0.999697 0.024434
vn -0.002863 -0.999697 0.024434
vn -0.002862 -0.999697 0.024434
vn -0.002862 -0.999697 0.024434
vn -0.002862 -0.999697 0.024434
vn -0.002862 -0.999697 0.024434
vn -0.002862 -0.999697 0.024434
vn -0.002862 -0.999697 0.024434
vn -0.002862 -0.999697 0.024434
vn -0.002862 -0.999697 0.024434
vn -0.002862 -0.999697 0.024434
vn -0.002862 -0.999697 0.024434
vn -0.002862 -0.999697 0.024434
vn -0.002862 -0.999697 0.024434
vn -0.002862 -0.999697 0.024435
vn -0.002862 -0.999697 0.024435
vn -0.002862 -0.999697 0.024435
vn -0.002862 -0.999697 0.024435
vn -0.002862 -0.999697 0.024435
vn -0.002862 -0.999697 0.024435
vn -0.002862 -0.999697 0.024435
vn -0.002862 -0.999697 0.024435
vn 0.002863 0.999697 -0.024434
vn 0.002862 0.999697 -0.024434
vn 0.002862 0.999697 -0.024434
vn 0.002862 0.999697 -0.024434
vn 0.002863 0.999697 -0.024434
vn 0.002863 0.999697 -0.024435
vn 0.002863 0.999697 -0.024434
vn 0.002863 0.999697 -0.024435
vn -0.055482 0.993181 -0.102532
vn -0.091482 0.957708 -0.272813
vn -0.346179 0.362763 -0.865195
vn -0.575989 0.381283 -0.723090
vn -0.684134 0.349419 -0.640209
vn -0.271552 0.918030 -0.288931
vn 0.040964 0.952942 -0.300372
vn 0.122535 0.362586 -0.923860
vn 0.112840 0.925804 -0.360770
vn 0.288467 0.383062 -0.877525
vn -0.874806 0.328499 -0.356094
vn -0.350067 0.921012 -0.170851
vn -0.902840 0.333572 0.271312
vn -0.377027 0.923706 0.067949
vn -0.488002 0.368441 0.791268
vn -0.292387 0.876683 0.382016
vn -0.046999 0.948186 0.314219
vn -0.135620 0.386932 0.912081
vn 0.061106 0.412235 0.909026
vn 0.020793 0.947218 0.319915
vn 0.244124 0.398790 0.883952
vn 0.081472 0.937124 0.339354
vn 0.202084 0.913985 -0.351844
vn 0.528513 0.348411 -0.774134
vn 0.555480 0.365607 0.746842
vn 0.183184 0.939552 0.289285
vn 0.102578 0.994714 0.004644
vn 0.096188 0.995143 0.020951
vn 0.822682 0.481387 0.302425
vn 0.888637 0.411196 0.203082
vn 0.908040 0.343366 -0.239925
vn 0.205087 0.974032 -0.095924
vn 0.103402 -0.018276 -0.994472
vn 0.127974 -0.254311 -0.958618
vn -0.345884 -0.245393 -0.905620
vn -0.366540 -0.021886 -0.930145
vn -0.598994 -0.226962 -0.767915
vn -0.621011 -0.017144 -0.783614
vn -0.693649 -0.194884 -0.693449
vn -0.767227 -0.022468 -0.640981
vn -0.916157 -0.171959 -0.362059
vn -0.931381 -0.023640 -0.363277
vn -0.960435 -0.137757 0.242050
vn -0.955420 -0.023013 0.294352
vn -0.146919 -0.060247 0.987312
vn -0.166616 -0.186520 0.968220
vn 0.061876 -0.210407 0.975654
vn 0.099410 -0.045147 0.994022
vn -0.574053 -0.164358 0.802153
vn -0.567127 -0.050073 0.822107
vn 0.316058 -0.023319 -0.948453
vn 0.303846 -0.271508 -0.913215
vn 0.262375 -0.196046 0.944842
vn 0.263047 -0.042245 0.963858
vn 0.959421 0.010556 -0.281780
vn 0.971452 -0.000525 0.237234
vn 0.923246 -0.279718 0.263390
vn 0.950502 -0.209616 -0.229365
vn 0.579713 -0.238180 -0.779233
vn 0.592900 -0.011279 -0.805197
vn 0.931353 -0.028521 0.362999
vn 0.874312 -0.318136 0.366562
vn 0.564034 -0.229201 0.793305
vn 0.595847 -0.044661 0.801855
s off
g pPlane1
usemtl initialShadingGroup
f 9/35/1 12/36/2 11/37/3 10/38/4
f 12/36/5 14/41/6 13/42/7 11/37/8
f 9/35/9 16/39/10 15/40/11 12/36/12
f 10/38/13 18/45/14 17/46/15 9/35/16
f 9/35/17 17/46/18 19/47/19 16/39/20
f 18/45/21 21/52/22 20/53/23 17/46/24
f 17/46/25 20/53/26 22/54/27 19/47/28
f 11/37/29 24/43/30 23/44/31 10/38/32
f 13/42/33 25/48/34 24/43/35 11/37/36
f 10/38/37 23/44/38 26/51/39 18/45/40
f 18/45/41 26/51/42 27/57/43 21/52/44
f 24/43/45 29/49/46 28/50/47 23/44/48
f 25/48/49 30/55/50 29/49/51 24/43/52
f 23/44/53 28/50/54 31/56/55 26/51/56
f 26/51/57 31/56/58 32/58/59 27/57/60
s 1
f 2/1/61 1/2/62 4/3/63 5/4/64
f 3/5/65 2/1/61 6/6/66 7/7/67
f 2/1/61 5/4/64 8/8/68 6/6/66
f 33/9/69 35/10/70 36/11/71 34/12/72
f 34/12/72 40/13/73 39/14/74 33/9/69
f 35/10/70 37/15/75 38/16/76 36/11/71
f 37/15/75 51/17/77 52/18/78 38/16/76
f 40/13/73 42/19/79 41/20/80 39/14/74
f 42/19/79 44/21/81 43/22/82 41/20/80
f 44/21/81 50/23/83 49/24/84 43/22/82
f 45/25/85 49/24/84 50/23/83 46/26/86
f 46/26/86 48/27/87 47/28/88 45/25/85
f 48/27/87 54/29/89 53/30/90 47/28/88
f 51/17/77 59/31/91 60/32/92 52/18/78
f 54/29/89 64/33/93 63/34/94 53/30/90
f 55/59/95 61/60/96 62/61/97 56/62/98
f 56/62/98 58/63/99 57/64/100 55/59/95
f 58/63/99 60/32/92 59/31/91 57/64/100
f 61/60/96 63/34/94 64/33/93 62/61/97
f 1/2/62 2/1/61 3/5/65 33/9/69
f 33/9/69 3/5/65 37/15/75 35/10/70
f 1/2/62 33/9/69 39/14/74 41/20/80
f 1/2/62 41/20/80 43/22/82 4/3/63
f 5/4/64 4/3/63 45/25/85 47/28/88
f 4/3/63 43/22/82 49/24/84 45/25/85
f 37/15/75 3/5/65 7/7/67 51/17/77
f 5/4/64 47/28/88 53/30/90 8/8/68
f 7/7/67 6/6/66 55/59/95 57/64/100
f 51/17/77 7/7/67 57/64/100 59/31/91
f 6/6/66 8/8/68 61/60/96 55/59/95
f 8/8/68 53/30/90 63/34/94 61/60/96
f 77/65/101 13/66/102 14/67/103 76/68/104
f 76/68/104 14/67/103 12/69/105 75/70/106
f 75/70/106 12/69/105 15/71/107 74/72/108
f 74/72/108 15/71/107 16/73/109 73/74/110
f 73/74/110 16/73/109 19/75/111 72/76/112
f 70/77/113 20/78/114 21/79/115 69/80/116
f 72/76/112 19/75/111 22/81/117 71/82/118
f 71/82/118 22/81/117 20/78/114 70/77/113
f 78/83/119 25/84/120 13/66/102 77/65/101
f 69/80/116 21/79/115 27/85/121 68/86/122
f 80/87/123 65/88/124 28/89/125 29/90/126
f 80/87/123 29/90/126 30/91/127 79/92/128
f 79/92/128 30/91/127 25/84/120 78/83/119
f 66/93/129 31/94/130 28/89/125 65/88/124
f 68/86/122 27/85/121 32/95/131 67/96/132
f 67/96/132 32/95/131 31/94/130 66/93/129
f 62/61/97 66/93/129 65/88/124 56/62/98
f 64/33/93 67/96/132 66/93/129 62/61/97
f 54/29/89 68/86/122 67/96/132 64/33/93
f 48/27/87 69/80/116 68/86/122 54/29/89
f 46/26/86 70/77/113 69/80/116 48/27/87
f 50/23/83 71/82/118 70/77/113 46/26/86
f 44/21/81 72/76/112 71/82/118 50/23/83
f 42/19/79 73/74/110 72/76/112 44/21/81
f 40/13/73 74/72/108 73/74/110 42/19/79
f 34/12/72 75/70/106 74/72/108 40/13/73
f 36/11/71 76/68/104 75/70/106 34/12/72
f 38/16/76 77/65/101 76/68/104 36/11/71
f 52/18/78 78/83/119 77/65/101 38/16/76
f 60/32/92 79/92/128 78/83/119 52/18/78
f 58/63/99 80/87/123 79/92/128 60/32/92
f 56/62/98 65/88/124 80/87/123 58/63/99
